<?xml version="1.0" encoding="utf-8"?>
<!-- Generator: Adobe Illustrator 22.1.0, SVG Export Plug-In . SVG Version: 6.00 Build 0)  -->
<svg version="1.1" id="Layer_1" xmlns="http://www.w3.org/2000/svg" xmlns:xlink="http://www.w3.org/1999/xlink" x="0px" y="0px"
	 viewBox="0 0 967.3 223.3" style="enable-background:new 0 0 967.3 223.3;" xml:space="preserve">
<style type="text/css">
	.st0{fill:#F04E30;}
</style>
<path class="st0" d="M237.2,211.9h52.7V2.8h-52.7V211.9z M967.3,54.1l0-51.3l-158.1,0l0,51.3l52.7,0l0,157.8l52.7,0l0-157.8
	L967.3,54.1z M112,107.6L59.3,2.8H0l112.2,212L224,2.8h-59.3L112,107.6z M734.5,2.8l0,209.1l52.7,0l0-209.1L734.5,2.8z M437.8,107.4
	L319.2,0v211.9h52.8l0-92.6l118.6,103.9V2.8h-52.7L437.8,107.4z M618.6,163.1c-30.4,0-55-25-55-55.9s24.6-55.9,55-55.9
	c16.9,0,32.1,7.8,42.1,20l38.7-35.5C679.7,13.8,651,0,619,0c-59.7,0-108.1,48.1-108.1,107.4S559.3,214.8,619,214.7
	c39.5,0,74.1-21.1,92.9-52.5l-45.4-27.6C657.1,151.6,639.2,163.1,618.6,163.1z M669.9,84.4c-0.5,0.1-0.8,0.6-0.6,1
	c2.8,6.7,4.4,14,4.4,21.8c0,3.9-0.4,7.6-1.2,11.3c-0.1,0.5,0.4,1,0.9,0.9c4.9-0.7,8.1-1.4,10.1-2.1c18.3-6.7,19.1-25.7,18.6-33
	c-0.1-1.6-1.5-2.8-3.2-2.7L669.9,84.4z M632.2,88.7c0,3.8,3,6.9,6.8,6.9c3.8,0,6.8-3.1,6.8-6.9c0-3.8-3-6.9-6.8-6.9
	C635.2,81.7,632.2,84.8,632.2,88.7z"/>
</svg>
